<svg width="21" height="21" viewBox="0 0 21 21" fill="none" xmlns="http://www.w3.org/2000/svg">
<path d="M14.5643 6.7414C13.9795 3.14059 12.6002 0.612366 10.995 0.612366C9.38984 0.612366 8.01052 3.14059 7.42573 6.7414H14.5643ZM7.12325 10.6124C7.12325 11.5075 7.17165 12.3664 7.25634 13.193H14.7296C14.8143 12.3664 14.8627 11.5075 14.8627 10.6124C14.8627 9.71721 14.8143 8.85833 14.7296 8.03172H7.25634C7.17165 8.85833 7.12325 9.71721 7.12325 10.6124ZM20.2186 6.7414C19.0652 4.00349 16.73 1.88656 13.8464 1.03172C14.8304 2.39462 15.508 4.44704 15.8629 6.7414H20.2186ZM8.13958 1.03172C5.25997 1.88656 2.92079 4.00349 1.77136 6.7414H6.12708C6.47796 4.44704 7.15551 2.39462 8.13958 1.03172ZM20.6502 8.03172H16.0242C16.1089 8.8785 16.1573 9.74543 16.1573 10.6124C16.1573 11.4793 16.1089 12.3462 16.0242 13.193H20.6461C20.868 12.3664 20.993 11.5075 20.993 10.6124C20.993 9.71721 20.868 8.85833 20.6502 8.03172ZM5.83267 10.6124C5.83267 9.74543 5.88106 8.8785 5.96576 8.03172H1.33983C1.12204 8.85833 0.992981 9.71721 0.992981 10.6124C0.992981 11.5075 1.12204 12.3664 1.33983 13.193H5.96172C5.88106 12.3462 5.83267 11.4793 5.83267 10.6124ZM7.42573 14.4833C8.01052 18.0841 9.38984 20.6124 10.995 20.6124C12.6002 20.6124 13.9795 18.0841 14.5643 14.4833H7.42573ZM13.8504 20.193C16.73 19.3382 19.0692 17.2212 20.2227 14.4833H15.8669C15.512 16.7777 14.8345 18.8301 13.8504 20.193ZM1.77136 14.4833C2.92482 17.2212 5.25997 19.3382 8.14362 20.193C7.15955 18.8301 6.48199 16.7777 6.12708 14.4833H1.77136Z" fill="#484848"/>
</svg>
